<svg version="1.1" id="Layer_1" xmlns="http://www.w3.org/2000/svg" xmlns:xlink="http://www.w3.org/1999/xlink" x="0px" y="0px"
	 width="100%" viewBox="0 0 2048 2048" enable-background="new 0 0 2048 2048" xml:space="preserve">
<path fill="#1A222A" opacity="1.000000" stroke="none" 
	d="
M1355.000000,2049.000000 
	C903.333313,2049.000000 452.166656,2049.000000 1.000000,2049.000000 
	C1.000000,1366.333374 1.000000,683.666687 1.000000,1.000000 
	C683.666687,1.000000 1366.333374,1.000000 2049.000000,1.000000 
	C2049.000000,683.666687 2049.000000,1366.333374 2049.000000,2049.000000 
	C1817.833374,2049.000000 1586.666626,2049.000000 1355.000000,2049.000000 
M455.460938,265.037964 
	C438.446136,252.569244 419.202637,246.697281 398.308014,247.169815 
	C368.706665,247.839294 342.386292,258.511292 318.712952,275.799530 
	C306.193176,284.942505 297.311066,297.158691 291.668701,311.645752 
	C280.977081,339.096954 273.626770,367.464020 270.140747,396.672943 
	C266.889099,423.917816 264.702454,451.290924 262.133270,478.615723 
	C260.658539,494.300201 259.396423,510.004517 257.966858,525.693420 
	C254.825867,560.162842 251.687668,594.632690 248.447861,629.092896 
	C247.127914,643.132446 245.413055,657.135071 244.118179,671.176636 
	C242.439865,689.375793 241.083252,707.604370 239.439316,725.806824 
	C237.371552,748.702148 235.176895,771.586121 232.994461,794.470947 
	C229.515228,830.953430 226.076218,867.440125 222.474518,903.910583 
	C220.135910,927.591370 217.425537,951.235352 215.102097,974.917480 
	C213.837769,987.804321 213.143829,1000.746155 211.996262,1013.645691 
	C210.243118,1033.352417 208.314468,1053.043457 206.470413,1072.742065 
	C203.993149,1099.204712 201.509155,1125.666870 199.058594,1152.131958 
	C196.853836,1175.942505 194.687988,1199.756836 192.509277,1223.569824 
	C190.360657,1247.054199 188.284378,1270.545532 186.055237,1294.022217 
	C183.095093,1325.197876 180.244583,1356.386719 176.931595,1387.525635 
	C173.001923,1424.460571 168.649734,1461.350830 164.444992,1498.256348 
	C160.636414,1531.684814 156.322128,1565.063477 153.069809,1598.545532 
	C149.639694,1633.857788 146.746155,1669.237915 144.521591,1704.645020 
	C143.380127,1722.813354 140.812759,1740.911255 142.918365,1759.340942 
	C146.357681,1789.444092 159.303909,1813.945679 182.829819,1832.811279 
	C210.869202,1855.296265 243.166595,1862.052246 278.236938,1857.737061 
	C315.070129,1853.204956 342.620056,1834.755859 362.266693,1803.186523 
	C376.713715,1779.972290 384.219513,1754.615479 387.801331,1728.087891 
	C394.683990,1677.113403 401.163483,1626.067993 406.630646,1574.925781 
	C409.667389,1546.519165 410.432404,1517.863892 412.009521,1489.309082 
	C412.899414,1473.197388 413.062073,1457.043091 414.086182,1440.941895 
	C415.480316,1419.022827 417.286194,1397.128174 419.097137,1375.238037 
	C420.964569,1352.664917 423.006775,1330.105957 425.051270,1307.547974 
	C427.331055,1282.394287 429.874664,1257.263306 431.983978,1232.095825 
	C434.514465,1201.903442 436.633911,1171.677002 439.070648,1141.476562 
	C440.957275,1118.093872 443.101685,1094.732300 445.050690,1071.354492 
	C446.780457,1050.606201 448.259369,1029.835938 450.102997,1009.098022 
	C452.263336,984.797729 454.736725,960.525513 457.001953,936.234375 
	C458.747925,917.511353 460.265625,898.766479 462.092682,880.051636 
	C464.998322,850.288940 468.071899,820.542664 471.085815,790.790588 
	C472.048126,781.291138 473.046326,771.795349 474.028107,762.297852 
	C475.885040,763.714966 476.824829,765.220764 477.618561,766.799927 
	C486.442261,784.355286 495.181030,801.953613 504.064362,819.478638 
	C519.671997,850.269470 535.379150,881.009705 551.017212,911.785095 
	C567.705933,944.628235 584.295776,977.521851 601.045654,1010.333801 
	C663.528137,1132.733765 725.893433,1255.194092 788.620728,1377.468628 
	C844.049744,1485.516235 899.945557,1593.324219 955.522705,1701.296021 
	C964.117371,1717.993286 976.968628,1729.619507 994.615540,1735.736084 
	C1014.086182,1742.484375 1033.946533,1746.099731 1054.802856,1744.129517 
	C1078.765015,1741.865967 1101.221069,1735.476196 1121.886475,1723.069336 
	C1135.936401,1714.634277 1146.622681,1703.277222 1154.079590,1688.462402 
	C1176.112549,1644.689331 1196.956421,1600.362549 1214.247070,1554.514282 
	C1243.629028,1476.603638 1272.794067,1398.602417 1301.062012,1320.282471 
	C1373.323242,1120.073486 1446.272095,920.133728 1526.924316,723.102234 
	C1527.592896,721.468628 1528.338745,719.866699 1529.427490,717.387146 
	C1530.142456,719.836121 1530.622192,721.239136 1530.961182,722.675293 
	C1542.475830,771.456360 1554.140015,820.202881 1565.450684,869.031250 
	C1602.259033,1027.934082 1632.535278,1188.116821 1657.663574,1349.244385 
	C1670.364380,1430.683960 1681.432983,1512.391479 1692.162842,1594.119263 
	C1697.119751,1631.875122 1700.340332,1669.914917 1702.806152,1707.926025 
	C1705.256592,1745.700684 1716.598267,1779.795898 1737.794067,1811.120483 
	C1763.529785,1849.154541 1807.985474,1861.763184 1849.524170,1848.711182 
	C1901.785645,1832.290161 1955.817871,1769.750244 1944.834106,1698.132690 
	C1939.508667,1663.409790 1936.335083,1628.362549 1931.663452,1593.532349 
	C1924.711548,1541.701050 1917.791870,1489.856689 1909.951904,1438.155396 
	C1899.990234,1372.462158 1890.040161,1306.743042 1878.415161,1241.331909 
	C1863.526367,1157.557007 1847.187378,1074.036621 1831.088013,990.480774 
	C1808.177368,871.574097 1782.200195,753.329224 1751.546753,636.172363 
	C1726.130615,539.032654 1699.860474,442.113831 1673.474976,345.231628 
	C1663.839966,309.853668 1643.717163,281.080017 1614.186646,259.160370 
	C1574.012451,229.340286 1516.224365,228.650314 1477.964233,264.448639 
	C1451.741577,288.984161 1429.556641,316.621002 1415.669189,349.841705 
	C1406.057861,372.833588 1399.019531,396.891510 1390.537964,420.367065 
	C1362.529297,497.891571 1335.094849,575.633911 1306.090942,652.785461 
	C1278.901855,725.109680 1249.940430,796.766846 1221.862793,868.758057 
	C1187.191406,957.656189 1156.638794,1048.095215 1120.199707,1136.359375 
	C1091.417847,1206.075806 1065.315796,1276.898438 1038.010620,1347.224731 
	C1037.258301,1349.162231 1036.357056,1351.041870 1035.139526,1353.832520 
	C1033.767212,1351.619507 1032.834229,1350.309204 1032.096191,1348.896973 
	C982.023682,1253.084106 930.982666,1157.761230 882.167175,1061.311890 
	C825.755920,949.854858 771.785156,837.165222 715.879333,725.448853 
	C651.773193,597.345947 586.785889,469.683411 521.999207,341.921906 
	C506.361206,311.083252 484.430115,285.423126 455.460938,265.037964 
z"/>
<path fill="#285CBE" opacity="1.000000" stroke="none" 
	d="
M455.754456,265.244629 
	C484.430115,285.423126 506.361206,311.083252 521.999207,341.921906 
	C586.785889,469.683411 651.773193,597.345947 715.879333,725.448853 
	C771.785156,837.165222 825.755920,949.854858 882.167175,1061.311890 
	C930.982666,1157.761230 982.023682,1253.084106 1032.096191,1348.896973 
	C1032.834229,1350.309204 1033.767212,1351.619507 1035.139526,1353.832520 
	C1036.357056,1351.041870 1037.258301,1349.162231 1038.010620,1347.224731 
	C1065.315796,1276.898438 1091.417847,1206.075806 1120.199707,1136.359375 
	C1156.638794,1048.095215 1187.191406,957.656189 1221.862793,868.758057 
	C1249.940430,796.766846 1278.901855,725.109680 1306.090942,652.785461 
	C1335.094849,575.633911 1362.529297,497.891571 1390.537964,420.367065 
	C1399.019531,396.891510 1406.057861,372.833588 1415.669189,349.841705 
	C1429.556641,316.621002 1451.741577,288.984161 1477.964233,264.448639 
	C1516.224365,228.650314 1574.012451,229.340286 1614.186646,259.160370 
	C1643.717163,281.080017 1663.839966,309.853668 1673.474976,345.231628 
	C1699.860474,442.113831 1726.130615,539.032654 1751.546753,636.172363 
	C1782.200195,753.329224 1808.177368,871.574097 1831.088013,990.480774 
	C1847.187378,1074.036621 1863.526367,1157.557007 1878.415161,1241.331909 
	C1890.040161,1306.743042 1899.990234,1372.462158 1909.951904,1438.155396 
	C1917.791870,1489.856689 1924.711548,1541.701050 1931.663452,1593.532349 
	C1936.335083,1628.362549 1939.508667,1663.409790 1944.834106,1698.132690 
	C1955.817871,1769.750244 1901.785645,1832.290161 1849.524170,1848.711182 
	C1807.985474,1861.763184 1763.529785,1849.154541 1737.794067,1811.120483 
	C1716.598267,1779.795898 1705.256592,1745.700684 1702.806152,1707.926025 
	C1700.340332,1669.914917 1697.119751,1631.875122 1692.162842,1594.119263 
	C1681.432983,1512.391479 1670.364380,1430.683960 1657.663574,1349.244385 
	C1632.535278,1188.116821 1602.259033,1027.934082 1565.450684,869.031250 
	C1554.140015,820.202881 1542.475830,771.456360 1530.961182,722.675293 
	C1530.622192,721.239136 1530.142456,719.836121 1529.427490,717.387146 
	C1528.338745,719.866699 1527.592896,721.468628 1526.924316,723.102234 
	C1446.272095,920.133728 1373.323242,1120.073486 1301.062012,1320.282471 
	C1272.794067,1398.602417 1243.629028,1476.603638 1214.247070,1554.514282 
	C1196.956421,1600.362549 1176.112549,1644.689331 1154.079590,1688.462402 
	C1146.622681,1703.277222 1135.936401,1714.634277 1121.886475,1723.069336 
	C1101.221069,1735.476196 1078.765015,1741.865967 1054.802856,1744.129517 
	C1033.946533,1746.099731 1014.086182,1742.484375 994.615540,1735.736084 
	C976.968628,1729.619507 964.117371,1717.993286 955.522705,1701.296021 
	C899.945557,1593.324219 844.049744,1485.516235 788.620728,1377.468628 
	C725.893433,1255.194092 663.528137,1132.733765 601.045654,1010.333801 
	C584.295776,977.521851 567.705933,944.628235 551.017212,911.785095 
	C535.379150,881.009705 519.671997,850.269470 504.064362,819.478638 
	C495.181030,801.953613 486.442261,784.355286 477.618561,766.799927 
	C476.824829,765.220764 475.885040,763.714966 474.028107,762.297852 
	C473.046326,771.795349 472.048126,781.291138 471.085815,790.790588 
	C468.071899,820.542664 464.998322,850.288940 462.092682,880.051636 
	C460.265625,898.766479 458.747925,917.511353 457.001953,936.234375 
	C454.736725,960.525513 452.263336,984.797729 450.102997,1009.098022 
	C448.259369,1029.835938 446.780457,1050.606201 445.050690,1071.354492 
	C443.101685,1094.732300 440.957275,1118.093872 439.070648,1141.476562 
	C436.633911,1171.677002 434.514465,1201.903442 431.983978,1232.095825 
	C429.874664,1257.263306 427.331055,1282.394287 425.051270,1307.547974 
	C423.006775,1330.105957 420.964569,1352.664917 419.097137,1375.238037 
	C417.286194,1397.128174 415.480316,1419.022827 414.086182,1440.941895 
	C413.062073,1457.043091 412.899414,1473.197388 412.009521,1489.309082 
	C410.432404,1517.863892 409.667389,1546.519165 406.630646,1574.925781 
	C401.163483,1626.067993 394.683990,1677.113403 387.801331,1728.087891 
	C384.219513,1754.615479 376.713715,1779.972290 362.266693,1803.186523 
	C342.620056,1834.755859 315.070129,1853.204956 278.236938,1857.737061 
	C243.166595,1862.052246 210.869202,1855.296265 182.829819,1832.811279 
	C159.303909,1813.945679 146.357681,1789.444092 142.918365,1759.340942 
	C140.812759,1740.911255 143.380127,1722.813354 144.521591,1704.645020 
	C146.746155,1669.237915 149.639694,1633.857788 153.069809,1598.545532 
	C156.322128,1565.063477 160.636414,1531.684814 164.444992,1498.256348 
	C168.649734,1461.350830 173.001923,1424.460571 176.931595,1387.525635 
	C180.244583,1356.386719 183.095093,1325.197876 186.055237,1294.022217 
	C188.284378,1270.545532 190.360657,1247.054199 192.509277,1223.569824 
	C194.687988,1199.756836 196.853836,1175.942505 199.058594,1152.131958 
	C201.509155,1125.666870 203.993149,1099.204712 206.470413,1072.742065 
	C208.314468,1053.043457 210.243118,1033.352417 211.996262,1013.645691 
	C213.143829,1000.746155 213.837769,987.804321 215.102097,974.917480 
	C217.425537,951.235352 220.135910,927.591370 222.474518,903.910583 
	C226.076218,867.440125 229.515228,830.953430 232.994461,794.470947 
	C235.176895,771.586121 237.371552,748.702148 239.439316,725.806824 
	C241.083252,707.604370 242.439865,689.375793 244.118179,671.176636 
	C245.413055,657.135071 247.127914,643.132446 248.447861,629.092896 
	C251.687668,594.632690 254.825867,560.162842 257.966858,525.693420 
	C259.396423,510.004517 260.658539,494.300201 262.133270,478.615723 
	C264.702454,451.290924 266.889099,423.917816 270.140747,396.672943 
	C273.626770,367.464020 280.977081,339.096954 291.668701,311.645752 
	C297.311066,297.158691 306.193176,284.942505 318.712952,275.799530 
	C342.386292,258.511292 368.706665,247.839294 398.308014,247.169815 
	C419.202637,246.697281 438.446136,252.569244 455.754456,265.244629 
z"/>
</svg>